<svg width="24" height="24" viewBox="0 0 24 24" fill="none" xmlns="http://www.w3.org/2000/svg">
<path d="M4.52439 18.6562C4.52439 19.0711 4.85955 19.4062 5.27439 19.4062H18.7275C19.1424 19.4062 19.4775 19.0711 19.4775 18.6562V13.1953C19.4775 9.06563 16.1306 5.71875 12.001 5.71875C7.87127 5.71875 4.52439 9.06563 4.52439 13.1953V18.6562ZM6.21189 13.1953C6.21189 9.99844 8.80408 7.40625 12.001 7.40625C15.1978 7.40625 17.79 9.99844 17.79 13.1953V17.7188H9.4697V13.7109C9.4697 13.582 9.36423 13.4766 9.23533 13.4766H8.20408C8.07517 13.4766 7.9697 13.582 7.9697 13.7109V17.7188H6.21189V13.1953ZM5.08455 7.27734L6.01267 6.34922C6.08533 6.27656 6.08533 6.15703 6.01267 6.08438L4.42127 4.49297C4.38603 4.45807 4.33844 4.4385 4.28884 4.4385C4.23925 4.4385 4.19166 4.45807 4.15642 4.49297L3.2283 5.42109C3.1934 5.45633 3.17383 5.50392 3.17383 5.55352C3.17383 5.60311 3.1934 5.6507 3.2283 5.68594L4.8197 7.27734C4.89236 7.35 5.00955 7.35 5.08455 7.27734ZM20.7783 5.42109L19.8502 4.49297C19.8149 4.45807 19.7673 4.4385 19.7178 4.4385C19.6682 4.4385 19.6206 4.45807 19.5853 4.49297L17.9939 6.08438C17.959 6.11962 17.9395 6.1672 17.9395 6.2168C17.9395 6.26639 17.959 6.31398 17.9939 6.34922L18.922 7.27734C18.9947 7.35 19.1142 7.35 19.1869 7.27734L20.7783 5.68594C20.851 5.61094 20.851 5.49375 20.7783 5.42109ZM19.501 20.9062H4.50095C4.08611 20.9062 3.75095 21.2414 3.75095 21.6562V22.2188C3.75095 22.3219 3.83533 22.4062 3.93845 22.4062H20.0635C20.1666 22.4062 20.251 22.3219 20.251 22.2188V21.6562C20.251 21.2414 19.9158 20.9062 19.501 20.9062ZM11.3447 4.21875H12.6572C12.7603 4.21875 12.8447 4.13438 12.8447 4.03125V1.78125C12.8447 1.67812 12.7603 1.59375 12.6572 1.59375H11.3447C11.2416 1.59375 11.1572 1.67812 11.1572 1.78125V4.03125C11.1572 4.13438 11.2416 4.21875 11.3447 4.21875Z" fill="#E6E6E6"/>
</svg>
