<svg width="129" height="129" viewBox="0 0 129 129" fill="none" xmlns="http://www.w3.org/2000/svg">
<path d="M75.25 112.875H86M75.25 112.875C73.1117 112.875 71.061 112.026 69.549 110.514C68.0369 109.002 67.1875 106.951 67.1875 104.812V91.375H64.5M75.25 112.875H53.75M64.5 91.375H61.8125V104.812C61.8125 106.951 60.9631 109.002 59.4511 110.514C57.939 112.026 55.8883 112.875 53.75 112.875M64.5 91.375V112.875M53.75 112.875H43M86 16.125H43C27.7995 16.125 20.1939 16.125 15.4746 20.8496C10.75 25.5689 10.75 33.1745 10.75 48.375V59.125C10.75 74.3255 10.75 81.9311 15.4746 86.6504C20.1939 91.375 27.7995 91.375 43 91.375H86C101.201 91.375 108.806 91.375 113.525 86.6504C118.25 81.9311 118.25 74.3255 118.25 59.125V48.375C118.25 33.1745 118.25 25.5689 113.525 20.8496C108.806 16.125 101.201 16.125 86 16.125Z" stroke="black" stroke-linecap="round" stroke-linejoin="round"/>
<path d="M37.625 53.75H51.0625L59.125 69.875L69.875 37.625L77.9375 53.75H91.375" stroke="black" stroke-linecap="round" stroke-linejoin="round"/>
</svg>
