<svg width="43" height="43" viewBox="0 0 43 43" fill="none" xmlns="http://www.w3.org/2000/svg">
<path d="M14.333 27.5918V15.4085C14.333 15.1234 14.4463 14.85 14.6479 14.6484C14.8495 14.4468 15.1229 14.3335 15.408 14.3335H27.5913C27.8764 14.3335 28.1499 14.4468 28.3515 14.6484C28.5531 14.85 28.6663 15.1234 28.6663 15.4085V27.5918C28.6663 27.8769 28.5531 28.1504 28.3515 28.352C28.1499 28.5536 27.8764 28.6668 27.5913 28.6668H15.408C15.1229 28.6668 14.8495 28.5536 14.6479 28.352C14.4463 28.1504 14.333 27.8769 14.333 27.5918Z" stroke="black" stroke-linecap="round" stroke-linejoin="round"/>
<path d="M30.458 7.16683V3.5835M21.4997 7.16683V3.5835M12.5413 7.16683V3.5835M12.5413 35.8335V39.4168M21.4997 35.8335V39.4168M30.458 35.8335V39.4168M35.833 30.4585H39.4163M35.833 21.5002H39.4163M35.833 12.5418H39.4163M7.16634 30.4585H3.58301M7.16634 21.5002H3.58301M7.16634 12.5418H3.58301M35.833 8.24183V34.7585C35.833 35.0436 35.7198 35.317 35.5181 35.5186C35.3165 35.7202 35.0431 35.8335 34.758 35.8335H8.24134C7.95623 35.8335 7.6828 35.7202 7.4812 35.5186C7.2796 35.317 7.16634 35.0436 7.16634 34.7585V8.24183C7.16634 7.95672 7.2796 7.68329 7.4812 7.48169C7.6828 7.28009 7.95623 7.16683 8.24134 7.16683H34.758C35.0431 7.16683 35.3165 7.28009 35.5181 7.48169C35.7198 7.68329 35.833 7.95672 35.833 8.24183Z" stroke="black" stroke-linecap="round" stroke-linejoin="round"/>
</svg>
