<svg width="40" height="40" viewBox="0 0 40 40" fill="none" xmlns="http://www.w3.org/2000/svg">
<path d="M31.6667 20.0002H8.33333V33.3335H31.6667V20.0002ZM8.33333 16.6668V3.3335H31.6667V16.6668H33.3333C33.7754 16.6668 34.1993 16.8424 34.5118 17.155C34.8244 17.4675 35 17.8915 35 18.3335V35.0002C35 35.4422 34.8244 35.8661 34.5118 36.1787C34.1993 36.4912 33.7754 36.6668 33.3333 36.6668H6.66667C6.22464 36.6668 5.80072 36.4912 5.48816 36.1787C5.17559 35.8661 5 35.4422 5 35.0002V18.3335C5 17.8915 5.17559 17.4675 5.48816 17.155C5.80072 16.8424 6.22464 16.6668 6.66667 16.6668H8.33333ZM11.6667 16.6668H28.3333V6.66683H11.6667V16.6668ZM15 10.0002H18.3333V13.3335H15V10.0002ZM21.6667 10.0002H25V13.3335H21.6667V10.0002Z" fill="#E6E6E6"/>
</svg>
