<svg width="16" height="16" viewBox="0 0 16 16" fill="none" xmlns="http://www.w3.org/2000/svg">
<path fill-rule="evenodd" clip-rule="evenodd" d="M10.6663 7.99967C10.6663 8.70692 10.3854 9.3852 9.88529 9.88529C9.3852 10.3854 8.70692 10.6663 7.99967 10.6663C7.29243 10.6663 6.61415 10.3854 6.11406 9.88529C5.61396 9.3852 5.33301 8.70692 5.33301 7.99967C5.33301 7.29243 5.61396 6.61415 6.11406 6.11406C6.61415 5.61396 7.29243 5.33301 7.99967 5.33301C8.70692 5.33301 9.3852 5.61396 9.88529 6.11406C10.3854 6.61415 10.6663 7.29243 10.6663 7.99967ZM9.33301 7.99967C9.33301 8.3533 9.19253 8.69243 8.94248 8.94248C8.69243 9.19253 8.3533 9.33301 7.99967 9.33301C7.64605 9.33301 7.30691 9.19253 7.05687 8.94248C6.80682 8.69243 6.66634 8.3533 6.66634 7.99967C6.66634 7.64605 6.80682 7.30691 7.05687 7.05687C7.30691 6.80682 7.64605 6.66634 7.99967 6.66634C8.3533 6.66634 8.69243 6.80682 8.94248 7.05687C9.19253 7.30691 9.33301 7.64605 9.33301 7.99967Z" fill="#1E1E1E"/>
<path fill-rule="evenodd" clip-rule="evenodd" d="M7.99995 2C11.728 2 14.86 4.54933 15.748 8C14.86 11.4507 11.728 14 7.99995 14C4.27195 14 1.13995 11.4507 0.251953 8C1.13995 4.54933 4.27195 2 7.99995 2ZM7.99995 12.6667C5.01595 12.6667 2.48729 10.7053 1.63795 8C2.48729 5.29467 5.01595 3.33333 7.99995 3.33333C10.984 3.33333 13.5126 5.29467 14.362 8C13.5126 10.7053 10.984 12.6667 7.99995 12.6667Z" fill="#1E1E1E"/>
</svg>
