<svg width="16" height="16" viewBox="0 0 16 16" fill="none" xmlns="http://www.w3.org/2000/svg">
<path d="M14.3535 9.6465L13 8.293V6.5C12.9984 5.26092 12.5375 4.06642 11.7063 3.14749C10.8751 2.22856 9.73271 1.65047 8.5 1.525V0.5H7.5V1.525C6.26729 1.65047 5.12488 2.22856 4.29368 3.14749C3.46249 4.06642 3.00155 5.26092 3 6.5V8.293L1.6465 9.6465C1.55273 9.74025 1.50003 9.8674 1.5 10V11.5C1.5 11.6326 1.55268 11.7598 1.64645 11.8536C1.74021 11.9473 1.86739 12 2 12H5.5V12.3885C5.4889 13.0229 5.7124 13.639 6.12763 14.1187C6.54286 14.5985 7.12059 14.908 7.75 14.988C8.09759 15.0225 8.44854 14.9838 8.78029 14.8745C9.11204 14.7652 9.41724 14.5877 9.67626 14.3533C9.93528 14.119 10.1424 13.833 10.2843 13.5138C10.4261 13.1946 10.4996 12.8493 10.5 12.5V12H14C14.1326 12 14.2598 11.9473 14.3536 11.8536C14.4473 11.7598 14.5 11.6326 14.5 11.5V10C14.5 9.8674 14.4473 9.74025 14.3535 9.6465ZM9.5 12.5C9.5 12.8978 9.34196 13.2794 9.06066 13.5607C8.77936 13.842 8.39782 14 8 14C7.60218 14 7.22064 13.842 6.93934 13.5607C6.65804 13.2794 6.5 12.8978 6.5 12.5V12H9.5V12.5ZM13.5 11H2.5V10.207L3.8535 8.8535C3.94727 8.75975 3.99997 8.6326 4 8.5V6.5C4 5.43913 4.42143 4.42172 5.17157 3.67157C5.92172 2.92143 6.93913 2.5 8 2.5C9.06087 2.5 10.0783 2.92143 10.8284 3.67157C11.5786 4.42172 12 5.43913 12 6.5V8.5C12 8.6326 12.0527 8.75975 12.1465 8.8535L13.5 10.207V11Z" fill="#214751"/>
</svg>
