<svg width="16" height="16" viewBox="0 0 16 16" fill="none" xmlns="http://www.w3.org/2000/svg">
<path d="M9.14222 13.8802H6.20889C6.16988 13.8815 6.13263 13.8967 6.10389 13.9231C6.07515 13.9496 6.05682 13.9854 6.05222 14.0242C6.04944 14.085 6.04944 14.146 6.05222 14.2068C6.05222 15.4642 7.41289 16.2502 8.50222 15.6215C8.75054 15.4781 8.95675 15.2719 9.1001 15.0236C9.24346 14.7753 9.31892 14.4936 9.31889 14.2068C9.32167 14.146 9.32167 14.085 9.31889 14.0242C9.31402 13.9819 9.29282 13.9431 9.25982 13.9162C9.22683 13.8894 9.18463 13.8764 9.14222 13.8802ZM9.63222 3.42682C9.63113 3.03856 9.70893 2.65412 9.86089 2.29682C9.48178 2.09771 9.07402 1.95872 8.65222 1.88482V1.14016C8.65222 1.01146 8.62688 0.884026 8.57763 0.765127C8.52838 0.646227 8.45619 0.538193 8.36519 0.447192C8.27419 0.35619 8.16615 0.284004 8.04725 0.234754C7.92835 0.185505 7.80092 0.160156 7.67222 0.160156C7.54353 0.160156 7.41609 0.185505 7.29719 0.234754C7.17829 0.284004 7.07026 0.35619 6.97926 0.447192C6.88826 0.538193 6.81607 0.646227 6.76682 0.765127C6.71757 0.884026 6.69222 1.01146 6.69222 1.14016V1.89149C6.01461 2.02036 5.37678 2.30673 4.83022 2.72749C4.13232 3.30128 3.57301 4.02528 3.19403 4.84545C2.81506 5.66562 2.6262 6.56079 2.64156 7.46416V7.96082C2.64156 9.62749 2.24956 11.2695 1.49822 12.7562C1.46162 12.8344 1.4568 12.9237 1.48478 13.0054C1.51276 13.0871 1.57135 13.1548 1.64822 13.1942C1.69318 13.2157 1.74239 13.2268 1.79222 13.2268H13.5522C13.6078 13.227 13.6624 13.2129 13.7111 13.186C13.7597 13.1592 13.8006 13.1203 13.8301 13.0732C13.8595 13.0261 13.8764 12.9723 13.8793 12.9168C13.8821 12.8613 13.8707 12.806 13.8462 12.7562C13.0959 11.2689 12.7043 9.62662 12.7029 7.96082V7.46416C12.7051 7.09418 12.6745 6.72474 12.6116 6.36016H12.5722C12.1865 6.36103 11.8043 6.28581 11.4476 6.13879C11.091 5.99177 10.7668 5.77584 10.4937 5.50336C10.2206 5.23089 10.004 4.90723 9.85615 4.5509C9.70832 4.19458 9.63222 3.8126 9.63222 3.42682Z" fill="#214751"/>
<path d="M10.6133 3.42682C10.6133 4.93548 12.2466 5.87882 13.5533 5.12415C13.8512 4.95213 14.0986 4.70472 14.2707 4.40677C14.4427 4.10883 14.5333 3.77086 14.5333 3.42682C14.5333 1.91815 12.8999 0.974817 11.5933 1.72948C11.2953 1.9015 11.0479 2.14892 10.8759 2.44686C10.7039 2.7448 10.6133 3.08278 10.6133 3.42682Z" fill="#214751"/>
</svg>
