<svg width="25" height="24" viewBox="0 0 25 24" fill="none" xmlns="http://www.w3.org/2000/svg">
<path d="M13.4336 11.4004V6.40039C13.4336 6.13517 13.3282 5.88082 13.1407 5.69328C12.9532 5.50575 12.6988 5.40039 12.4336 5.40039C12.1684 5.40039 11.914 5.50575 11.7265 5.69328C11.539 5.88082 11.4336 6.13517 11.4336 6.40039V11.4004H6.43359C6.16838 11.4004 5.91402 11.5057 5.72649 11.6933C5.53895 11.8808 5.43359 12.1352 5.43359 12.4004C5.43359 12.6656 5.53895 12.92 5.72649 13.1075C5.91402 13.295 6.16838 13.4004 6.43359 13.4004H11.4336V18.4004C11.4336 18.6656 11.539 18.92 11.7265 19.1075C11.914 19.295 12.1684 19.4004 12.4336 19.4004C12.6988 19.4004 12.9532 19.295 13.1407 19.1075C13.3282 18.92 13.4336 18.6656 13.4336 18.4004V13.4004H18.4336C18.6988 13.4004 18.9532 13.295 19.1407 13.1075C19.3282 12.92 19.4336 12.6656 19.4336 12.4004C19.4336 12.1352 19.3282 11.8808 19.1407 11.6933C18.9532 11.5057 18.6988 11.4004 18.4336 11.4004H13.4336Z" fill="white"/>
</svg>
