<svg width="44" height="44" viewBox="0 0 44 44" fill="none" xmlns="http://www.w3.org/2000/svg">
<g clip-path="url(#clip0_570_10367)">
<path d="M40.5938 9.01562H2.40625C1.82194 9.01562 1.26157 9.24774 0.848405 9.66091C0.435239 10.0741 0.203125 10.6344 0.203125 11.2188V34.7188C0.203125 34.9135 0.280496 35.1003 0.418218 35.238C0.55594 35.3758 0.742732 35.4531 0.9375 35.4531C1.13227 35.4531 1.31906 35.3758 1.45678 35.238C1.5945 35.1003 1.67188 34.9135 1.67188 34.7188V31.0469H6.07812V34.7188C6.07812 34.9135 6.1555 35.1003 6.29322 35.238C6.43094 35.3758 6.61773 35.4531 6.8125 35.4531C7.00727 35.4531 7.19406 35.3758 7.33178 35.238C7.4695 35.1003 7.54688 34.9135 7.54688 34.7188V31.0469H11.9531V34.7188C11.9531 34.9135 12.0305 35.1003 12.1682 35.238C12.3059 35.3758 12.4927 35.4531 12.6875 35.4531C12.8823 35.4531 13.0691 35.3758 13.2068 35.238C13.3445 35.1003 13.4219 34.9135 13.4219 34.7188V31.0469H17.8281V34.7188C17.8281 34.9135 17.9055 35.1003 18.0432 35.238C18.1809 35.3758 18.3677 35.4531 18.5625 35.4531C18.7573 35.4531 18.9441 35.3758 19.0818 35.238C19.2195 35.1003 19.2969 34.9135 19.2969 34.7188V31.0469H23.7031V34.7188C23.7031 34.9135 23.7805 35.1003 23.9182 35.238C24.0559 35.3758 24.2427 35.4531 24.4375 35.4531C24.6323 35.4531 24.8191 35.3758 24.9568 35.238C25.0945 35.1003 25.1719 34.9135 25.1719 34.7188V31.0469H29.5781V34.7188C29.5781 34.9135 29.6555 35.1003 29.7932 35.238C29.9309 35.3758 30.1177 35.4531 30.3125 35.4531C30.5073 35.4531 30.6941 35.3758 30.8318 35.238C30.9695 35.1003 31.0469 34.9135 31.0469 34.7188V31.0469H35.4531V34.7188C35.4531 34.9135 35.5305 35.1003 35.6682 35.238C35.8059 35.3758 35.9927 35.4531 36.1875 35.4531C36.3823 35.4531 36.5691 35.3758 36.7068 35.238C36.8445 35.1003 36.9219 34.9135 36.9219 34.7188V31.0469H41.3281V34.7188C41.3281 34.9135 41.4055 35.1003 41.5432 35.238C41.6809 35.3758 41.8677 35.4531 42.0625 35.4531C42.2573 35.4531 42.4441 35.3758 42.5818 35.238C42.7195 35.1003 42.7969 34.9135 42.7969 34.7188V11.2188C42.7969 10.6344 42.5648 10.0741 42.1516 9.66091C41.7384 9.24774 41.1781 9.01562 40.5938 9.01562ZM1.67188 11.2188C1.67188 11.024 1.74925 10.8372 1.88697 10.6995C2.02469 10.5617 2.21148 10.4844 2.40625 10.4844H40.5938C40.7885 10.4844 40.9753 10.5617 41.113 10.6995C41.2508 10.8372 41.3281 11.024 41.3281 11.2188V29.5781H1.67188V11.2188ZM18.5625 25.1719C18.7573 25.1719 18.9441 25.0945 19.0818 24.9568C19.2195 24.8191 19.2969 24.6323 19.2969 24.4375V15.625C19.2969 15.4302 19.2195 15.2434 19.0818 15.1057C18.9441 14.968 18.7573 14.8906 18.5625 14.8906H6.8125C6.61773 14.8906 6.43094 14.968 6.29322 15.1057C6.1555 15.2434 6.07812 15.4302 6.07812 15.625V24.4375C6.07812 24.6323 6.1555 24.8191 6.29322 24.9568C6.43094 25.0945 6.61773 25.1719 6.8125 25.1719H18.5625ZM7.54688 16.3594H17.8281V23.7031H7.54688V16.3594ZM24.4375 25.1719H36.1875C36.3823 25.1719 36.5691 25.0945 36.7068 24.9568C36.8445 24.8191 36.9219 24.6323 36.9219 24.4375V15.625C36.9219 15.4302 36.8445 15.2434 36.7068 15.1057C36.5691 14.968 36.3823 14.8906 36.1875 14.8906H24.4375C24.2427 14.8906 24.0559 14.968 23.9182 15.1057C23.7805 15.2434 23.7031 15.4302 23.7031 15.625V24.4375C23.7031 24.6323 23.7805 24.8191 23.9182 24.9568C24.0559 25.0945 24.2427 25.1719 24.4375 25.1719ZM25.1719 16.3594H35.4531V23.7031H25.1719V16.3594Z" fill="#E6E6E6"/>
</g>
<defs>
<clipPath id="clip0_570_10367">
<rect width="44" height="44" fill="white"/>
</clipPath>
</defs>
</svg>
