<svg width="32" height="32" viewBox="0 0 32 32" fill="none" xmlns="http://www.w3.org/2000/svg">
<path d="M16.0003 29.3332C23.3337 29.3332 29.3337 23.3332 29.3337 15.9998C29.3337 8.6665 23.3337 2.6665 16.0003 2.6665C8.66699 2.6665 2.66699 8.6665 2.66699 15.9998C2.66699 23.3332 8.66699 29.3332 16.0003 29.3332ZM16.4003 9.71984C16.667 9.47984 16.987 9.33317 17.3337 9.33317C17.6937 9.33317 18.0003 9.47984 18.2803 9.71984C18.5337 9.99984 18.667 10.3198 18.667 10.6665C18.667 11.0265 18.5337 11.3332 18.2803 11.6132C18.0003 11.8665 17.6937 11.9998 17.3337 11.9998C16.987 11.9998 16.667 11.8665 16.4003 11.6132C16.147 11.3332 16.0003 11.0265 16.0003 10.6665C16.0003 10.3198 16.147 9.99984 16.4003 9.71984ZM13.067 15.9598C13.067 15.9598 15.9603 13.6665 17.0137 13.5732C18.0003 13.4932 17.8003 14.6265 17.707 15.2132L17.6937 15.2932C17.507 15.9998 17.2803 16.8532 17.0537 17.6665C16.547 19.5198 16.0537 21.3332 16.1737 21.6665C16.307 22.1198 17.1337 21.5465 17.7337 21.1465C17.8137 21.0932 17.8803 21.0398 17.947 20.9998C17.947 20.9998 18.0537 20.8932 18.1603 21.0398C18.187 21.0798 18.2137 21.1198 18.2403 21.1465C18.3603 21.3332 18.427 21.3998 18.267 21.5065L18.2137 21.5332C17.9203 21.7332 16.667 22.6132 16.1603 22.9332C15.6137 23.2932 13.5203 24.4932 13.8403 22.1598C14.1203 20.5198 14.4937 19.1065 14.787 17.9998C15.3337 15.9998 15.5737 15.0932 14.347 15.8798C13.8537 16.1732 13.5603 16.3598 13.387 16.4798C13.2403 16.5865 13.227 16.5865 13.1337 16.4132L13.0937 16.3332L13.027 16.2265C12.9337 16.0932 12.9337 16.0798 13.067 15.9598Z" fill="#BADCDA"/>
</svg>
