<svg width="32" height="32" viewBox="0 0 32 32" fill="none" xmlns="http://www.w3.org/2000/svg">
<path d="M15.9993 29.3332C23.3327 29.3332 29.3327 23.3332 29.3327 15.9998C29.3327 8.6665 23.3327 2.6665 15.9993 2.6665C8.66602 2.6665 2.66602 8.6665 2.66602 15.9998C2.66602 23.3332 8.66602 29.3332 15.9993 29.3332ZM16.3993 9.71984C16.666 9.47984 16.986 9.33317 17.3327 9.33317C17.6927 9.33317 17.9993 9.47984 18.2793 9.71984C18.5327 9.99984 18.666 10.3198 18.666 10.6665C18.666 11.0265 18.5327 11.3332 18.2793 11.6132C17.9993 11.8665 17.6927 11.9998 17.3327 11.9998C16.986 11.9998 16.666 11.8665 16.3993 11.6132C16.146 11.3332 15.9993 11.0265 15.9993 10.6665C15.9993 10.3198 16.146 9.99984 16.3993 9.71984ZM13.066 15.9598C13.066 15.9598 15.9593 13.6665 17.0127 13.5732C17.9993 13.4932 17.7993 14.6265 17.706 15.2132L17.6927 15.2932C17.506 15.9998 17.2793 16.8532 17.0527 17.6665C16.546 19.5198 16.0527 21.3332 16.1727 21.6665C16.306 22.1198 17.1327 21.5465 17.7327 21.1465C17.8127 21.0932 17.8793 21.0398 17.946 20.9998C17.946 20.9998 18.0527 20.8932 18.1593 21.0398C18.186 21.0798 18.2127 21.1198 18.2393 21.1465C18.3594 21.3332 18.426 21.3998 18.266 21.5065L18.2127 21.5332C17.9193 21.7332 16.666 22.6132 16.1593 22.9332C15.6127 23.2932 13.5193 24.4932 13.8393 22.1598C14.1193 20.5198 14.4927 19.1065 14.786 17.9998C15.3327 15.9998 15.5727 15.0932 14.346 15.8798C13.8527 16.1732 13.5593 16.3598 13.386 16.4798C13.2393 16.5865 13.226 16.5865 13.1327 16.4132L13.0927 16.3332L13.026 16.2265C12.9327 16.0932 12.9327 16.0798 13.066 15.9598Z" fill="#009AB4"/>
</svg>
