<svg width="24" height="24" viewBox="0 0 24 24" fill="none" xmlns="http://www.w3.org/2000/svg">
<g clip-path="url(#clip0_2044_3908)">
<path d="M3 21V19H5V5C5 4.45 5.196 3.97933 5.588 3.588C5.98 3.19667 6.45067 3.00067 7 3H17C17.55 3 18.021 3.196 18.413 3.588C18.805 3.98 19.0007 4.45067 19 5V19H21V21H3ZM7 19H17V5H7V19ZM10 13C10.2833 13 10.521 12.904 10.713 12.712C10.905 12.52 11.0007 12.2827 11 12C10.9993 11.7173 10.9033 11.48 10.712 11.288C10.5207 11.096 10.2833 11 10 11C9.71667 11 9.47933 11.096 9.288 11.288C9.09667 11.48 9.00067 11.7173 9 12C8.99933 12.2827 9.09533 12.5203 9.288 12.713C9.48067 12.9057 9.718 13.0013 10 13Z" fill="white"/>
</g>
<defs>
<clipPath id="clip0_2044_3908">
<rect width="24" height="24" fill="white"/>
</clipPath>
</defs>
</svg>
