<svg width="40" height="32" viewBox="0 0 40 32" fill="none" xmlns="http://www.w3.org/2000/svg">
<path d="M35.032 16.992C34.7915 16.7183 34.6589 16.3664 34.6589 16.002C34.6589 15.6377 34.7915 15.2858 35.032 15.012L36.952 12.852C37.1635 12.616 37.2949 12.3191 37.3273 12.0038C37.3596 11.6885 37.2912 11.3711 37.132 11.097L34.132 5.90704C33.9743 5.63332 33.7343 5.41636 33.4461 5.28707C33.1579 5.15778 32.8362 5.12278 32.527 5.18704L29.707 5.75704C29.3481 5.83118 28.9746 5.77142 28.6568 5.58904C28.339 5.40666 28.099 5.11426 27.982 4.76704L27.067 2.02204C26.9663 1.72411 26.7746 1.46534 26.5189 1.2823C26.2632 1.09927 25.9564 1.00123 25.642 1.00204H19.642C19.3149 0.984967 18.9912 1.07543 18.7203 1.25961C18.4495 1.44379 18.2463 1.71157 18.142 2.02204L17.302 4.76704C17.185 5.11426 16.9449 5.40666 16.6271 5.58904C16.3094 5.77142 15.9358 5.83118 15.577 5.75704L12.682 5.18704C12.3888 5.14561 12.0899 5.19187 11.823 5.32C11.5561 5.44813 11.333 5.65238 11.182 5.90704L8.18197 11.097C8.01871 11.368 7.94531 11.6837 7.97225 11.9989C7.99919 12.3141 8.1251 12.6127 8.33197 12.852L10.237 15.012C10.4775 15.2858 10.6101 15.6377 10.6101 16.002C10.6101 16.3664 10.4775 16.7183 10.237 16.992L8.33197 19.152C8.1251 19.3914 7.99919 19.69 7.97225 20.0052C7.94531 20.3204 8.01871 20.6361 8.18197 20.907L11.182 26.097C11.3396 26.3708 11.5797 26.5877 11.8679 26.717C12.1561 26.8463 12.4777 26.8813 12.787 26.817L15.607 26.247C15.9658 26.1729 16.3394 26.2327 16.6571 26.415C16.9749 26.5974 17.215 26.8898 17.332 27.237L18.247 29.982C18.3513 30.2925 18.5545 30.5603 18.8253 30.7445C19.0962 30.9286 19.4199 31.0191 19.747 31.002H25.747C26.0614 31.0029 26.3682 30.9048 26.6239 30.7218C26.8796 30.5387 27.0713 30.28 27.172 29.982L28.087 27.237C28.204 26.8898 28.444 26.5974 28.7618 26.415C29.0796 26.2327 29.4531 26.1729 29.812 26.247L32.632 26.817C32.9412 26.8813 33.2629 26.8463 33.5511 26.717C33.8393 26.5877 34.0793 26.3708 34.237 26.097L37.237 20.907C37.3962 20.633 37.4646 20.3156 37.4323 20.0003C37.3999 19.685 37.2685 19.388 37.057 19.152L35.032 16.992ZM32.797 19.002L33.997 20.352L32.077 23.682L30.307 23.322C29.2266 23.1012 28.1028 23.2847 27.1489 23.8377C26.1949 24.3908 25.4772 25.2748 25.132 26.322L24.562 28.002H20.722L20.182 26.292C19.8368 25.2448 19.119 24.3608 18.1651 23.8077C17.2111 23.2547 16.0873 23.0712 15.007 23.292L13.237 23.652L11.287 20.337L12.487 18.987C13.2249 18.162 13.6329 17.0939 13.6329 15.987C13.6329 14.8801 13.2249 13.8121 12.487 12.987L11.287 11.637L13.207 8.33704L14.977 8.69704C16.0573 8.91787 17.1811 8.73436 18.1351 8.18134C19.089 7.62831 19.8068 6.74428 20.152 5.69704L20.722 4.00204H24.562L25.132 5.71204C25.4772 6.75928 26.1949 7.64331 27.1489 8.19634C28.1028 8.74936 29.2266 8.93287 30.307 8.71204L32.077 8.35204L33.997 11.682L32.797 13.032C32.0673 13.8552 31.6644 14.9171 31.6644 16.017C31.6644 17.117 32.0673 18.1789 32.797 19.002ZM22.642 10.002C21.4553 10.002 20.2952 10.3539 19.3086 11.0132C18.3219 11.6725 17.5528 12.6096 17.0987 13.7059C16.6446 14.8023 16.5258 16.0087 16.7573 17.1726C16.9888 18.3365 17.5602 19.4056 18.3993 20.2447C19.2384 21.0838 20.3075 21.6552 21.4714 21.8868C22.6353 22.1183 23.8417 21.9994 24.9381 21.5453C26.0344 21.0912 26.9715 20.3222 27.6308 19.3355C28.2901 18.3488 28.642 17.1887 28.642 16.002C28.642 14.4107 28.0098 12.8846 26.8846 11.7594C25.7594 10.6342 24.2333 10.002 22.642 10.002ZM22.642 19.002C22.0486 19.002 21.4686 18.8261 20.9753 18.4964C20.4819 18.1668 20.0974 17.6983 19.8703 17.1501C19.6433 16.6019 19.5839 15.9987 19.6996 15.4168C19.8154 14.8348 20.1011 14.3003 20.5207 13.8807C20.9402 13.4612 21.4748 13.1754 22.0567 13.0597C22.6386 12.9439 23.2418 13.0033 23.79 13.2304C24.3382 13.4575 24.8067 13.842 25.1364 14.3353C25.466 14.8287 25.642 15.4087 25.642 16.002C25.642 16.7977 25.3259 17.5608 24.7633 18.1234C24.2007 18.686 23.4376 19.002 22.642 19.002Z" fill="white"/>
</svg>
