<svg width="24" height="24" viewBox="0 0 24 24" fill="none" xmlns="http://www.w3.org/2000/svg">
<path d="M12.942 18H11.5C9.412 18 7.64 17.2723 6.184 15.817C4.728 14.3617 4 12.5907 4 10.504C4 8.41733 4.72767 6.645 6.183 5.187C7.63833 3.729 9.41 3 11.498 3C12.542 3 13.5187 3.19533 14.428 3.586C15.3373 3.976 16.1317 4.51067 16.811 5.19C17.4903 5.86933 18.025 6.66233 18.415 7.569C18.805 8.47567 19 9.45267 19 10.5C19 12.4133 18.5087 14.168 17.526 15.764C16.5433 17.36 15.2923 18.6867 13.773 19.744C13.6837 19.7953 13.5937 19.8237 13.503 19.829C13.4137 19.8337 13.328 19.8137 13.246 19.769C13.164 19.7243 13.0987 19.6673 13.05 19.598C13.0013 19.5287 12.975 19.441 12.971 19.335L12.942 18ZM14 18.35C15.1833 17.35 16.146 16.1793 16.888 14.838C17.63 13.4967 18.0007 12.0507 18 10.5C18 8.68333 17.3707 7.146 16.112 5.888C14.8533 4.63 13.316 4.00067 11.5 4C9.684 3.99933 8.14667 4.62867 6.888 5.888C5.62933 7.14733 5 8.68467 5 10.5C5 12.3153 5.62933 13.853 6.888 15.113C8.14667 16.373 9.684 17.002 11.5 17H14V18.35ZM11.536 15.571C11.74 15.571 11.9133 15.499 12.056 15.355C12.1987 15.211 12.2697 15.0367 12.269 14.832C12.2683 14.6273 12.1963 14.454 12.053 14.312C11.9097 14.17 11.7353 14.0987 11.53 14.098C11.3247 14.0973 11.1513 14.1697 11.01 14.315C10.8687 14.4603 10.7973 14.6347 10.796 14.838C10.7947 15.0413 10.8667 15.2147 11.012 15.358C11.1573 15.5013 11.332 15.5723 11.536 15.571ZM9.459 8.202C9.575 8.24667 9.69067 8.24367 9.806 8.193C9.92133 8.14233 10.0157 8.06067 10.089 7.948C10.2257 7.72267 10.4197 7.54267 10.671 7.408C10.9223 7.27467 11.2117 7.208 11.539 7.208C12.0297 7.208 12.4287 7.33633 12.736 7.593C13.0433 7.84967 13.1967 8.197 13.196 8.635C13.196 8.90567 13.1303 9.159 12.999 9.395C12.8677 9.63033 12.6437 9.90633 12.327 10.223C11.8977 10.641 11.5893 10.9997 11.402 11.299C11.2147 11.5983 11.1213 11.889 11.122 12.171C11.122 12.3023 11.1647 12.4143 11.25 12.507C11.3353 12.5997 11.4387 12.6463 11.56 12.647C11.6813 12.6477 11.783 12.601 11.865 12.507C11.947 12.415 11.9957 12.3013 12.011 12.166C12.0437 11.9593 12.1553 11.7297 12.346 11.477C12.5367 11.2243 12.7687 10.9617 13.042 10.689C13.418 10.313 13.687 9.95867 13.849 9.626C14.011 9.29267 14.092 8.95967 14.092 8.627C14.092 7.941 13.8553 7.38933 13.382 6.972C12.9087 6.55467 12.307 6.346 11.577 6.346C11.0863 6.346 10.6343 6.46567 10.221 6.705C9.80767 6.94433 9.497 7.22967 9.289 7.561C9.21567 7.69633 9.194 7.82567 9.224 7.949C9.254 8.07233 9.33233 8.15667 9.459 8.202Z" fill="#E6E6E6"/>
</svg>
