<svg width="65" height="65" viewBox="0 0 65 65" fill="none" xmlns="http://www.w3.org/2000/svg">
<path d="M64.397 46.1157L46.7188 63.8257L38.1812 55.2563L41.0376 52.3999L46.7188 58.0493L61.5405 43.2593L64.397 46.1157ZM32.5 12.1875V28.4375H44.6875V32.5H28.4375V12.1875H32.5ZM30.4688 56.875C30.8073 56.875 31.1458 56.8644 31.4844 56.8433C31.8229 56.8221 32.1615 56.8009 32.5 56.7798L36.1182 60.3979C35.166 60.5672 34.2244 60.6942 33.2935 60.7788C32.3625 60.8634 31.4209 60.9163 30.4688 60.9375C27.6758 60.9375 24.9886 60.5778 22.4072 59.8584C19.8258 59.139 17.3926 58.1128 15.1074 56.7798C12.8223 55.4468 10.7699 53.8599 8.9502 52.019C7.13053 50.1782 5.54362 48.1152 4.18945 45.8301C2.83529 43.5449 1.80908 41.1222 1.11084 38.562C0.412598 36.0018 0.0423177 33.304 0 30.4688C0 27.6758 0.359701 24.9886 1.0791 22.4072C1.7985 19.8258 2.82471 17.3926 4.15771 15.1074C5.49072 12.8223 7.07764 10.7699 8.91846 8.9502C10.7593 7.13053 12.8223 5.54362 15.1074 4.18945C17.3926 2.83529 19.8153 1.80908 22.3755 1.11084C24.9357 0.412598 27.6335 0.0423177 30.4688 0C33.2617 0 35.9489 0.359701 38.5303 1.0791C41.1117 1.7985 43.5449 2.82471 45.8301 4.15771C48.1152 5.49072 50.1676 7.07764 51.9873 8.91846C53.807 10.7593 55.3939 12.8223 56.748 15.1074C58.1022 17.3926 59.1284 19.8153 59.8267 22.3755C60.5249 24.9357 60.8952 27.6335 60.9375 30.4688C60.9375 31.5267 60.874 32.5952 60.7471 33.6743L55.415 39.0381C56.3883 36.224 56.875 33.3675 56.875 30.4688C56.875 28.0355 56.5576 25.6974 55.9229 23.4546C55.2881 21.2118 54.3994 19.117 53.2568 17.1704C52.1143 15.2238 50.7389 13.4359 49.1309 11.8066C47.5228 10.1774 45.7454 8.80208 43.7988 7.68066C41.8522 6.55924 39.7469 5.67057 37.4829 5.01465C35.2189 4.35872 32.8809 4.04134 30.4688 4.0625C28.0355 4.0625 25.6974 4.37988 23.4546 5.01465C21.2118 5.64941 19.117 6.53809 17.1704 7.68066C15.2238 8.82324 13.4359 10.1986 11.8066 11.8066C10.1774 13.4147 8.80208 15.1921 7.68066 17.1387C6.55924 19.0853 5.67057 21.1906 5.01465 23.4546C4.35872 25.7186 4.04134 28.0566 4.0625 30.4688C4.0625 32.902 4.37988 35.2401 5.01465 37.4829C5.64941 39.7257 6.53809 41.8205 7.68066 43.7671C8.82324 45.7137 10.1986 47.5016 11.8066 49.1309C13.4147 50.7601 15.1921 52.1354 17.1387 53.2568C19.0853 54.3783 21.1906 55.2669 23.4546 55.9229C25.7186 56.5788 28.0566 56.8962 30.4688 56.875Z" fill="#E6E6E6"/>
</svg>
