<svg width="43" height="30" viewBox="0 0 43 30" fill="none" xmlns="http://www.w3.org/2000/svg">
<path d="M21.5003 29.995C20.6569 29.995 19.944 29.7039 19.3618 29.1216C18.7795 28.5393 18.4883 27.8265 18.4883 26.9831C18.4883 26.1397 18.7795 25.4262 19.3618 24.8426C19.944 24.2591 20.6569 23.9679 21.5003 23.9692C22.3436 23.9705 23.0565 24.2617 23.6388 24.8426C24.221 25.4236 24.5122 26.1364 24.5122 26.9811C24.5122 27.8258 24.221 28.5393 23.6388 29.1216C23.0565 29.7039 22.3436 29.995 21.5003 29.995ZM10.4357 20.0604L8.43229 18.0355C10.1321 16.3356 12.0931 15.004 14.3151 14.0405C16.5372 13.077 18.9342 12.5959 21.5061 12.5972C24.0781 12.5985 26.4731 13.0815 28.6913 14.0463C30.9094 15.0111 32.8684 16.348 34.5682 18.057L32.5648 20.0604C31.1287 18.6243 29.4641 17.4982 27.5711 16.6823C25.678 15.8663 23.6544 15.4583 21.5003 15.4583C19.3461 15.4583 17.3225 15.8663 15.4294 16.6823C13.5364 17.4982 11.8718 18.6243 10.4357 20.0604ZM2.11275 11.7375L0.109375 9.73409C2.83668 6.99243 6.01897 4.8252 9.65625 3.23243C13.2935 1.63965 17.2415 0.845219 21.5003 0.849136C25.759 0.853052 29.707 1.64879 33.3443 3.23634C36.9815 4.8239 40.1638 6.99047 42.8911 9.73605L40.8878 11.7375C38.3746 9.22427 35.4619 7.25811 32.1497 5.83897C28.8375 4.41983 25.2877 3.70961 21.5003 3.7083C17.7128 3.707 14.1637 4.41722 10.8528 5.83897C7.5419 7.26072 4.62856 9.22689 2.11275 11.7375Z" fill="black"/>
</svg>
